# xmcd
#
# Track frame offsets:
#  150
#  15981
#  38786
#  48735
#  65150
#  75062
#  88681
#  101665
#  116236
#  127255
#  139524
#  152136
#  163098
#  175069
#  191029
#  205949
#  220316
#
# Disc length: 3155 seconds
#
# Revision: 0
# Processed by: cddbd v1.4PL0 Copyright (c) Steve Scherf et al.
# Submitted via: AltoMP3_Maker 3.0
#
DISCID=f00c5111
DTITLE=EL AS DE LA SIERRA - EN VIVO
DYEAR=1900
DGENRE=
TTITLE0=PRESENTACION
TTITLE1=EL CARTEL DE LOS CIELOS
TTITLE2=CRUZ DE AMAPOLA
TTITLE3=REGALO CARO
TTITLE4=ALEGRE Y MUJERIEGO
TTITLE5=GUAMUCHILITO
TTITLE6=CRUZ DE CEMENTO
TTITLE7=OJO DE AGUA
TTITLE8=VEINTE MUJERES
TTITLE9=SE LES PELO BALTAZAR
TTITLE10=QUE ME ENTIERREN CANSADO
TTITLE11=EL RAMAZO
TTITLE12=EL COSALTECO
TTITLE13=XXX
TTITLE14=XXX
TTITLE15=XXX
TTITLE16=XXX
EXTD=
EXTT0=
EXTT1=
EXTT2=
EXTT3=
EXTT4=
EXTT5=
EXTT6=
EXTT7=
EXTT8=
EXTT9=
EXTT10=
EXTT11=
EXTT12=
EXTT13=
EXTT14=
EXTT15=
EXTT16=
PLAYORDER=
